<?xml version="1.0" encoding="UTF-8"?>
<svg width="69px" height="17px" viewBox="0 0 69 17" version="1.1" xmlns="http://www.w3.org/2000/svg" xmlns:xlink="http://www.w3.org/1999/xlink">
    <!-- Generator: Sketch 60.1 (88133) - https://sketch.com -->
    <title>logo</title>
    <desc>Created with Sketch.</desc>
    <defs>
        <path d="M9.440411,0 L14.0901657,0 L4.64975467,11.2721325 L4.22512146,11.2721325 C3.13567175,11.2721325 2.25249827,10.3889591 2.25249827,9.29950934 C2.25249827,8.83637732 2.4154518,8.38801098 2.7128139,8.03295176 L9.440411,0 L9.440411,0 Z" id="path-1"></path>
        <linearGradient x1="50%" y1="45.6682842%" x2="48.7187101%" y2="54.0212832%" id="linearGradient-3">
            <stop stop-color="#003C78" stop-opacity="0.8" offset="0%"></stop>
            <stop stop-color="#015EBA" stop-opacity="0" offset="100%"></stop>
        </linearGradient>
        <path d="M4.61728137,16.5800938 L5.51631856,5.93887242 L6.77520173,16.5800938 L10.2650996,16.5800938 L13.226201,5.89215487 L12.3233175,16.5800938 L16.9802229,16.5800938 L18.3264387,0.22894876 L12.6177911,0.22894876 L9.67812135,10.4190658 L8.64422503,0.22894876 L1.37494465,0.22894876 L0.0287287987,16.5800938 L4.61728137,16.5800938 Z M31.0514811,16.5800938 L31.3768048,12.7258953 L24.0213849,12.7258953 L24.2402391,10.1330709 L29.8826818,10.1330709 L30.1843456,6.55917777 L24.5419029,6.55917777 L24.7508987,4.08314723 L31.9895246,4.08314723 L32.3148483,0.22894876 L20.5913369,0.22894876 L19.2111758,16.5800938 L31.0514811,16.5800938 Z M37.6192125,16.8931291 C39.6132332,16.8931291 43.7170311,16.1152996 44.5057523,12.4150406 C45.2944735,8.7147816 41.9964996,6.96670101 40.1818698,6.4224349 C37.6192125,5.65381117 38.3601182,4.11131684 39.1712138,3.79993118 C40.5670341,3.2640653 42.6063212,4.08314723 44.2971834,5.02804711 L44.6355233,0.632128524 C43.1556393,0.210709508 41.4891324,-5.68434189e-14 39.6360027,-5.68434189e-14 C37.5498496,-5.68434189e-14 33.635896,1.20981808 33.0167237,4.60935573 C32.2199371,8.98407692 36.1941914,9.88910718 37.6192125,10.5096766 C39.9727514,11.5345976 38.833869,13.2077584 37.6192125,13.2077584 C35.7271515,13.2077584 34.3457507,12.6013152 32.7479384,11.5345976 L32.3477722,16.0144909 C33.9310734,16.6002497 35.6882202,16.8931291 37.6192125,16.8931291 Z" id="path-4"></path>
        <linearGradient x1="50%" y1="45.6895931%" x2="48.7187101%" y2="54.7217818%" id="linearGradient-6">
            <stop stop-color="#003C78" stop-opacity="0.8" offset="0%"></stop>
            <stop stop-color="#015EBA" stop-opacity="0" offset="100%"></stop>
        </linearGradient>
        <linearGradient x1="50%" y1="34.4788432%" x2="48.7187101%" y2="61.4628038%" id="linearGradient-7">
            <stop stop-color="#003C78" stop-opacity="0.8" offset="0%"></stop>
            <stop stop-color="#015EBA" stop-opacity="0" offset="100%"></stop>
        </linearGradient>
        <linearGradient x1="50%" y1="29.0370673%" x2="48.7187101%" y2="65.481706%" id="linearGradient-8">
            <stop stop-color="#003C78" stop-opacity="0.8" offset="0%"></stop>
            <stop stop-color="#015EBA" stop-opacity="0" offset="100%"></stop>
        </linearGradient>
    </defs>
    <g id="MES" stroke="none" stroke-width="1" fill="none" fill-rule="evenodd">
        <g id="合批规则管理" transform="translate(-20.000000, -15.000000)">
            <g id="logo" transform="translate(20.000000, 15.000000)">
                <g id="ziMedia-蓝" transform="translate(0.000000, 2.000000)">
                    <g id="编组-13备份-2" transform="translate(0.000000, 0.805825)">
                        <path d="M1.58035935,12.2131613 C1.67149859,12.8105839 1.95023428,13.3463062 2.35457442,13.7583364 L0.42270497,13.7572855 Z" id="形状结合备份" fill="#C6010C"></path>
                        <g id="矩形备份-17" transform="translate(0.000000, 2.485153)">
                            <mask id="mask-2" fill="white">
                                <use xlink:href="#path-1"></use>
                            </mask>
                            <use id="蒙版" fill="#007BED" xlink:href="#path-1"></use>
                            <rect id="矩形" fill="url(#linearGradient-3)" mask="url(#mask-2)" x="6.34057455" y="0.84540994" width="7.04508284" height="2.32487734"></rect>
                        </g>
                        <polygon id="矩形备份-18" fill="#007BED" points="4.50885301 10.3756457 13.526559 10.3756457 12.3500302 13.7572855 4.50885301 13.7572855"></polygon>
                        <path d="M1.58514364,0.230726463 L11.9766408,0.230726463 C13.8442689,0.230726463 15.3582806,1.74473815 15.3582806,3.61236622 L15.3582806,3.61236622 L15.3582806,3.61236622 L6.13405094,3.61236622 C5.38666209,3.61236622 4.66988433,3.31546716 4.1414006,2.78698343 L1.58514364,0.230726463 L1.58514364,0.230726463 Z" id="矩形备份-19" fill="#007BED"></path>
                        <polygon id="矩形备份-20" fill="#007BED" points="17.3309038 4.88048113 20.9943469 4.88048113 18.3172154 13.7572855 14.6537723 13.7572855"></polygon>
                        <path d="M20.1877461,0 L20.1868239,0.403 L20.6618239,0.678 L21.0207047,0.474655145 L21.6213592,1.50149059 L21.2478239,1.714 L21.2478239,2.238 L21.6213592,2.45080088 L21.0207047,3.47763633 L20.6628239,3.273 L20.1868239,3.548 L20.1877461,3.95229147 L18.986437,3.95229147 L18.9858239,3.548 L18.5108239,3.273 L18.1534785,3.47763633 L17.5528239,2.45080088 L17.9258239,2.237 L17.9258239,1.714 L17.5528239,1.50149059 L18.1534785,0.474655145 L18.5108239,0.678 L18.9858239,0.404 L18.986437,0 L20.1877461,0 Z M19.5870916,1.27868253 C19.2018933,1.27868253 18.8896284,1.59094745 18.8896284,1.97614574 C18.8896284,2.36134402 19.2018933,2.67360894 19.5870916,2.67360894 C19.9722898,2.67360894 20.2845548,2.36134402 20.2845548,1.97614574 C20.2845548,1.59094745 19.9722898,1.27868253 19.5870916,1.27868253 Z" id="形状结合" fill="#007BED"></path>
                    </g>
                </g>
                <g id="编组-18备份" transform="translate(24.000000, 0.000000)">
                    <g id="矩形">
                        <mask id="mask-5" fill="white">
                            <use xlink:href="#path-4"></use>
                        </mask>
                        <use id="蒙版" fill="#007BED" fill-rule="nonzero" xlink:href="#path-4"></use>
                        <polygon fill="url(#linearGradient-6)" mask="url(#mask-5)" transform="translate(7.540779, 8.404521) rotate(-90.000000) translate(-7.540779, -8.404521) " points="-0.634793535 5.48102366 15.7163515 6.86290516 15.7163515 11.3280189 -0.634793535 10.1116598"></polygon>
                        <polygon fill="url(#linearGradient-7)" mask="url(#mask-5)" points="20.2647215 4.08314723 30.6247836 4.08314723 30.0886959 10.1540062 19.7286329 10.1540062"></polygon>
                    </g>
                    <path d="M33.2794617,6.63367178 C33.3807372,4.70121919 35.8827218,3.3155339 39.2824069,3.49370385 C39.7887792,3.52024169 40.277546,3.58049747 40.7428465,3.67031243 C40.1709549,3.59335812 39.6354893,3.6216923 39.1712138,3.79993118 C38.3601182,4.11131684 37.6192125,5.65381117 40.1818698,6.4224349 C41.3631288,6.77673265 43.1729614,7.64115204 44.0748782,9.22212847 C42.9149389,10.069673 41.0373899,10.5648107 38.9476475,10.4552919 C37.4958901,10.3792086 36.2319387,10.0236109 35.268014,9.49061447 C35.0233662,9.35185298 34.7812034,9.19577526 34.5507678,9.01882189 L34.4177845,8.91035978 C33.6539533,8.26357053 33.2356668,7.46932695 33.2794617,6.63367178 Z" id="形状结合" fill="url(#linearGradient-8)"></path>
                </g>
            </g>
        </g>
    </g>
</svg>